<svg width="335" height="300" viewBox="0 0 335 300" fill="none" xmlns="http://www.w3.org/2000/svg">
<path opacity="0.05" d="M288.253 74.2814C147.706 -67.7117 68.2961 33.5917 33.1592 110.06C-1.97769 186.529 7.39209 227.686 22.6181 244.056C92.892 352.796 463.938 251.773 288.253 74.2814Z" fill="#093845"/>
<rect x="193" y="223" width="31" height="31" rx="4" fill="white"/>
<g clip-path="url(#clip0_18_3)">
<path d="M208.5 229.558C203.569 229.558 199.558 233.569 199.558 238.5C199.558 243.431 203.569 247.442 208.5 247.442C213.431 247.442 217.442 243.431 217.442 238.5C217.442 233.569 213.431 229.558 208.5 229.558ZM213.485 235.518L207.982 241.709C207.847 241.861 207.658 241.939 207.468 241.939C207.317 241.939 207.165 241.89 207.038 241.789L203.599 239.037C203.302 238.8 203.254 238.367 203.492 238.07C203.729 237.774 204.162 237.725 204.458 237.963L207.388 240.306L212.457 234.603C212.709 234.319 213.144 234.294 213.428 234.546C213.712 234.799 213.738 235.234 213.485 235.518Z" fill="#1DD1A1"/>
</g>
<rect x="162" width="31" height="27.4794" rx="4" fill="white"/>
<g clip-path="url(#clip1_18_3)">
<path d="M177.5 5.81311C172.569 5.81311 168.558 9.36879 168.558 13.7397C168.558 18.1106 172.569 21.6663 177.5 21.6663C182.431 21.6663 186.442 18.1106 186.442 13.7397C186.442 9.36879 182.431 5.81311 177.5 5.81311ZM182.485 11.0962L176.982 16.5838C176.847 16.7189 176.658 16.7884 176.468 16.7884C176.317 16.7884 176.165 16.7445 176.038 16.6549L172.599 14.2159C172.302 14.0058 172.254 13.622 172.492 13.3589C172.729 13.0958 173.162 13.0531 173.458 13.2635L176.388 15.3406L181.457 10.2855C181.709 10.0337 182.144 10.0112 182.428 10.2349C182.712 10.459 182.738 10.8444 182.485 11.0962Z" fill="#1DD1A1"/>
</g>
<circle opacity="0.5" cx="162.5" cy="147.5" r="65.5" fill="white"/>
<g filter="url(#filter0_d_18_3)">
<circle cx="91" cy="98" r="46" fill="white"/>
</g>
<g opacity="0.2" clip-path="url(#clip2_18_3)">
<path d="M80.5832 117.88L70.14 123.576C69.5272 123.911 68.9764 124.321 68.464 124.769C74.5527 129.903 82.4125 133 91 133C99.5242 133 107.334 129.949 113.405 124.885C112.845 124.412 112.238 123.987 111.564 123.652L100.381 118.061C98.9364 117.338 98.0238 115.862 98.0238 114.247V109.859C98.3381 109.501 98.6974 109.042 99.0817 108.499C100.606 106.346 101.759 103.978 102.558 101.493C103.992 101.051 105.049 99.7262 105.049 98.1519V93.4685C105.049 92.4383 104.591 91.5177 103.879 90.8732V84.103C103.879 84.103 105.269 73.5674 91.0013 73.5674C76.7332 73.5674 78.124 84.103 78.124 84.103V90.8732C77.4108 91.5177 76.9538 92.4383 76.9538 93.4685V98.1519C76.9538 99.3855 77.6023 100.471 78.573 101.098C79.7432 106.193 82.8074 109.859 82.8074 109.859V114.138C82.8061 115.697 81.9528 117.132 80.5832 117.88Z" fill="#E7ECED"/>
<path d="M91.5983 63.0053C72.2717 62.6751 56.3355 78.0751 56.0053 97.4017C55.8177 108.36 60.7019 118.209 68.4785 124.758C68.987 124.315 69.5324 123.908 70.1387 123.578L80.5819 117.881C81.9515 117.134 82.8047 115.698 82.8047 114.137V109.858C82.8047 109.858 79.7392 106.191 78.5704 101.097C77.6009 100.47 76.9511 99.3855 76.9511 98.1506V93.4672C76.9511 92.437 77.4094 91.5164 78.1213 90.8719V84.1017C78.1213 84.1017 76.7306 73.566 90.9987 73.566C105.267 73.566 103.876 84.1017 103.876 84.1017V90.8719C104.589 91.5164 105.046 92.437 105.046 93.4672V98.1506C105.046 99.7249 103.99 101.05 102.555 101.492C101.756 103.976 100.603 106.345 99.079 108.497C98.6947 109.04 98.3355 109.5 98.0211 109.858V114.245C98.0211 115.861 98.9338 117.338 100.379 118.06L111.561 123.65C112.232 123.986 112.839 124.41 113.397 124.881C120.939 118.592 125.811 109.188 125.992 98.5983C126.325 79.2717 110.926 63.3355 91.5983 63.0053Z" fill="#1DD1A1"/>
</g>
<g filter="url(#filter1_d_18_3)">
<circle cx="222.5" cy="93.5" r="29.5" fill="white"/>
</g>
<g opacity="0.2" clip-path="url(#clip3_18_3)">
<path d="M216.994 104.008L211.474 107.019C211.15 107.196 210.859 107.413 210.588 107.649C213.806 110.363 217.961 112 222.5 112C227.006 112 231.134 110.387 234.343 107.711C234.047 107.461 233.726 107.236 233.37 107.059L227.459 104.104C226.695 103.722 226.213 102.941 226.213 102.087V99.7684C226.379 99.5792 226.569 99.3362 226.772 99.0493C227.577 97.9114 228.187 96.6597 228.609 95.3465C229.367 95.1126 229.926 94.4124 229.926 93.5803V91.1048C229.926 90.5602 229.684 90.0737 229.307 89.733V86.1545C229.307 86.1545 230.042 80.5856 222.501 80.5856C214.959 80.5856 215.694 86.1545 215.694 86.1545V89.733C215.317 90.0737 215.076 90.5602 215.076 91.1048V93.5803C215.076 94.2323 215.418 94.8062 215.931 95.1378C216.55 97.8304 218.17 99.7684 218.17 99.7684V102.03C218.169 102.854 217.718 103.613 216.994 104.008Z" fill="#E7ECED"/>
<path d="M222.816 75.0028C212.601 74.8283 204.177 82.9683 204.003 93.1838C203.904 98.976 206.485 104.182 210.596 107.644C210.865 107.409 211.153 107.194 211.473 107.02L216.993 104.009C217.717 103.614 218.168 102.855 218.168 102.03V99.7677C218.168 99.7677 216.548 97.8297 215.93 95.1371C215.418 94.8055 215.074 94.2323 215.074 93.5796V91.1041C215.074 90.5596 215.316 90.073 215.693 89.7323V86.1538C215.693 86.1538 214.958 80.5849 222.499 80.5849C230.041 80.5849 229.306 86.1538 229.306 86.1538V89.7323C229.683 90.073 229.924 90.5596 229.924 91.1041V93.5796C229.924 94.4118 229.366 95.112 228.608 95.3458C228.185 96.659 227.576 97.9107 226.77 99.0486C226.567 99.3356 226.377 99.5785 226.211 99.7677V102.087C226.211 102.941 226.694 103.722 227.457 104.103L233.368 107.058C233.723 107.235 234.043 107.459 234.339 107.709C238.325 104.384 240.9 99.4137 240.996 93.8163C241.172 83.6008 233.032 75.1773 222.816 75.0028Z" fill="#556080"/>
</g>
<g filter="url(#filter2_d_18_3)">
<circle cx="234.5" cy="200.5" r="29.5" fill="white"/>
</g>
<g opacity="0.2" clip-path="url(#clip4_18_3)">
<path d="M228.994 211.008L223.474 214.019C223.15 214.196 222.859 214.413 222.588 214.649C225.806 217.363 229.961 219 234.5 219C239.006 219 243.134 217.387 246.343 214.711C246.047 214.461 245.726 214.236 245.37 214.059L239.459 211.104C238.695 210.722 238.213 209.941 238.213 209.087V206.768C238.379 206.579 238.569 206.336 238.772 206.049C239.577 204.911 240.187 203.66 240.609 202.347C241.367 202.113 241.926 201.412 241.926 200.58V198.105C241.926 197.56 241.684 197.074 241.307 196.733V193.154C241.307 193.154 242.042 187.586 234.501 187.586C226.959 187.586 227.694 193.154 227.694 193.154V196.733C227.317 197.074 227.076 197.56 227.076 198.105V200.58C227.076 201.232 227.418 201.806 227.931 202.138C228.55 204.83 230.17 206.768 230.17 206.768V209.03C230.169 209.854 229.718 210.613 228.994 211.008Z" fill="#E7ECED"/>
<path d="M234.816 182.003C224.601 181.828 216.177 189.968 216.003 200.184C215.904 205.976 218.485 211.182 222.596 214.644C222.865 214.409 223.153 214.194 223.473 214.02L228.993 211.009C229.717 210.614 230.168 209.855 230.168 209.03V206.768C230.168 206.768 228.548 204.83 227.93 202.137C227.418 201.805 227.074 201.232 227.074 200.58V198.104C227.074 197.56 227.316 197.073 227.693 196.732V193.154C227.693 193.154 226.958 187.585 234.499 187.585C242.041 187.585 241.306 193.154 241.306 193.154V196.732C241.683 197.073 241.924 197.56 241.924 198.104V200.58C241.924 201.412 241.366 202.112 240.608 202.346C240.185 203.659 239.576 204.911 238.77 206.049C238.567 206.336 238.377 206.578 238.211 206.768V209.087C238.211 209.941 238.694 210.722 239.457 211.103L245.368 214.058C245.723 214.235 246.043 214.459 246.339 214.709C250.325 211.384 252.9 206.414 252.996 200.816C253.172 190.601 245.032 182.177 234.816 182.003Z" fill="#FB4767"/>
</g>
<g filter="url(#filter3_d_18_3)">
<circle cx="130.5" cy="204.5" r="22.5" fill="white"/>
</g>
<g opacity="0.2" clip-path="url(#clip5_18_3)">
<path d="M126.3 212.515L122.09 214.811C121.843 214.946 121.621 215.111 121.415 215.292C123.869 217.362 127.038 218.61 130.5 218.61C133.936 218.61 137.085 217.38 139.533 215.339C139.307 215.148 139.062 214.977 138.79 214.841L134.282 212.588C133.7 212.296 133.332 211.701 133.332 211.05V209.281C133.458 209.137 133.603 208.951 133.758 208.733C134.373 207.865 134.837 206.91 135.16 205.908C135.738 205.73 136.164 205.196 136.164 204.561V202.673C136.164 202.258 135.979 201.887 135.692 201.627V198.897C135.692 198.897 136.253 194.65 130.501 194.65C124.748 194.65 125.309 198.897 125.309 198.897V201.627C125.022 201.887 124.837 202.258 124.837 202.673V204.561C124.837 205.059 125.099 205.496 125.49 205.749C125.962 207.803 127.197 209.281 127.197 209.281V211.006C127.197 211.634 126.853 212.213 126.3 212.515Z" fill="#E7ECED"/>
<path d="M130.741 190.392C122.95 190.259 116.525 196.467 116.392 204.259C116.316 208.677 118.285 212.647 121.421 215.288C121.626 215.109 121.845 214.945 122.09 214.812L126.3 212.515C126.852 212.214 127.196 211.635 127.196 211.006V209.28C127.196 209.28 125.96 207.802 125.489 205.749C125.098 205.496 124.836 205.059 124.836 204.561V202.673C124.836 202.257 125.021 201.886 125.308 201.626V198.897C125.308 198.897 124.747 194.65 130.499 194.65C136.252 194.65 135.691 198.897 135.691 198.897V201.626C135.979 201.886 136.163 202.257 136.163 202.673V204.561C136.163 205.195 135.737 205.729 135.159 205.908C134.836 206.909 134.372 207.864 133.757 208.732C133.602 208.951 133.457 209.136 133.331 209.28V211.049C133.331 211.7 133.699 212.296 134.281 212.587L138.789 214.841C139.06 214.976 139.304 215.147 139.529 215.337C142.57 212.802 144.534 209.01 144.607 204.741C144.741 196.95 138.533 190.525 130.741 190.392Z" fill="#556080"/>
</g>
<g filter="url(#filter4_d_18_3)">
<rect x="40" y="179" width="43" height="38" rx="4" fill="white"/>
</g>
<g opacity="0.5">
<path d="M55.1803 204.38L46 199.373V196.6L55.1803 191.622V194.879L48.7833 197.952L55.1803 201.141V204.38Z" fill="#0F314C"/>
<path d="M56.7484 206.132L62.8365 189.868H64.7599L58.6576 206.132H56.7484Z" fill="#0F314C"/>
<path d="M66.8196 204.38V201.141L73.2154 197.977L66.8196 194.839V191.62L76 196.605V199.361L66.8196 204.38Z" fill="#0F314C"/>
</g>
<defs>
<filter id="filter0_d_18_3" x="5" y="42" width="172" height="172" filterUnits="userSpaceOnUse" color-interpolation-filters="sRGB">
<feFlood flood-opacity="0" result="BackgroundImageFix"/>
<feColorMatrix in="SourceAlpha" type="matrix" values="0 0 0 0 0 0 0 0 0 0 0 0 0 0 0 0 0 0 127 0" result="hardAlpha"/>
<feOffset dy="30"/>
<feGaussianBlur stdDeviation="20"/>
<feColorMatrix type="matrix" values="0 0 0 0 0.78375 0 0 0 0 0.833512 0 0 0 0 0.870833 0 0 0 0.74 0"/>
<feBlend mode="normal" in2="BackgroundImageFix" result="effect1_dropShadow_18_3"/>
<feBlend mode="normal" in="SourceGraphic" in2="effect1_dropShadow_18_3" result="shape"/>
</filter>
<filter id="filter1_d_18_3" x="153" y="54" width="139" height="139" filterUnits="userSpaceOnUse" color-interpolation-filters="sRGB">
<feFlood flood-opacity="0" result="BackgroundImageFix"/>
<feColorMatrix in="SourceAlpha" type="matrix" values="0 0 0 0 0 0 0 0 0 0 0 0 0 0 0 0 0 0 127 0" result="hardAlpha"/>
<feOffset dy="30"/>
<feGaussianBlur stdDeviation="20"/>
<feColorMatrix type="matrix" values="0 0 0 0 0.78375 0 0 0 0 0.833512 0 0 0 0 0.870833 0 0 0 0.74 0"/>
<feBlend mode="normal" in2="BackgroundImageFix" result="effect1_dropShadow_18_3"/>
<feBlend mode="normal" in="SourceGraphic" in2="effect1_dropShadow_18_3" result="shape"/>
</filter>
<filter id="filter2_d_18_3" x="165" y="161" width="139" height="139" filterUnits="userSpaceOnUse" color-interpolation-filters="sRGB">
<feFlood flood-opacity="0" result="BackgroundImageFix"/>
<feColorMatrix in="SourceAlpha" type="matrix" values="0 0 0 0 0 0 0 0 0 0 0 0 0 0 0 0 0 0 127 0" result="hardAlpha"/>
<feOffset dy="30"/>
<feGaussianBlur stdDeviation="20"/>
<feColorMatrix type="matrix" values="0 0 0 0 0.78375 0 0 0 0 0.833512 0 0 0 0 0.870833 0 0 0 0.74 0"/>
<feBlend mode="normal" in2="BackgroundImageFix" result="effect1_dropShadow_18_3"/>
<feBlend mode="normal" in="SourceGraphic" in2="effect1_dropShadow_18_3" result="shape"/>
</filter>
<filter id="filter3_d_18_3" x="68" y="172" width="125" height="125" filterUnits="userSpaceOnUse" color-interpolation-filters="sRGB">
<feFlood flood-opacity="0" result="BackgroundImageFix"/>
<feColorMatrix in="SourceAlpha" type="matrix" values="0 0 0 0 0 0 0 0 0 0 0 0 0 0 0 0 0 0 127 0" result="hardAlpha"/>
<feOffset dy="30"/>
<feGaussianBlur stdDeviation="20"/>
<feColorMatrix type="matrix" values="0 0 0 0 0.78375 0 0 0 0 0.833512 0 0 0 0 0.870833 0 0 0 0.74 0"/>
<feBlend mode="normal" in2="BackgroundImageFix" result="effect1_dropShadow_18_3"/>
<feBlend mode="normal" in="SourceGraphic" in2="effect1_dropShadow_18_3" result="shape"/>
</filter>
<filter id="filter4_d_18_3" x="0" y="169" width="123" height="118" filterUnits="userSpaceOnUse" color-interpolation-filters="sRGB">
<feFlood flood-opacity="0" result="BackgroundImageFix"/>
<feColorMatrix in="SourceAlpha" type="matrix" values="0 0 0 0 0 0 0 0 0 0 0 0 0 0 0 0 0 0 127 0" result="hardAlpha"/>
<feOffset dy="30"/>
<feGaussianBlur stdDeviation="20"/>
<feColorMatrix type="matrix" values="0 0 0 0 0.78375 0 0 0 0 0.833512 0 0 0 0 0.870833 0 0 0 0.74 0"/>
<feBlend mode="normal" in2="BackgroundImageFix" result="effect1_dropShadow_18_3"/>
<feBlend mode="normal" in="SourceGraphic" in2="effect1_dropShadow_18_3" result="shape"/>
</filter>
<clipPath id="clip0_18_3">
<rect width="17.8846" height="17.8846" fill="white" transform="translate(199.558 229.558)"/>
</clipPath>
<clipPath id="clip1_18_3">
<rect width="17.8846" height="15.8532" fill="white" transform="translate(168.558 5.81311)"/>
</clipPath>
<clipPath id="clip2_18_3">
<rect width="70" height="70" fill="white" transform="translate(56 63)"/>
</clipPath>
<clipPath id="clip3_18_3">
<rect width="37" height="37" fill="white" transform="translate(204 75)"/>
</clipPath>
<clipPath id="clip4_18_3">
<rect width="37" height="37" fill="white" transform="translate(216 182)"/>
</clipPath>
<clipPath id="clip5_18_3">
<rect width="28.2203" height="28.2203" fill="white" transform="translate(116.39 190.39)"/>
</clipPath>
</defs>
</svg>
