<svg width="445" height="312" viewBox="0 0 445 312" fill="none" xmlns="http://www.w3.org/2000/svg">
<path opacity="0.05" d="M382.253 71.2814C241.706 -70.7117 162.296 30.5917 127.159 107.06C92.0223 183.529 101.392 224.686 116.618 241.056C186.892 349.796 557.938 248.773 382.253 71.2814Z" fill="#093845"/>
<rect x="141" y="131" width="304" height="50" rx="4" fill="white"/>
<g filter="url(#filter0_d_18_2)">
<rect x="40" y="192" width="304" height="50" rx="4" fill="white"/>
</g>
<circle cx="410" cy="146" r="3" fill="#C4C4C4"/>
<circle cx="410" cy="156" r="3" fill="#C4C4C4"/>
<circle cx="410" cy="166" r="3" fill="#C4C4C4"/>
<circle cx="309" cy="207" r="3" fill="#C4C4C4"/>
<circle cx="309" cy="217" r="3" fill="#C4C4C4"/>
<circle cx="309" cy="227" r="3" fill="#C4C4C4"/>
<path d="M220.449 163H223.105L218.105 148.908H215.264L210.264 163H212.861L214.062 159.357H219.248L220.449 163ZM216.621 151.398H216.689L218.652 157.414H214.648L216.621 151.398ZM224.375 163H226.807V156.975C226.807 155.52 227.637 154.631 229.014 154.631C229.424 154.631 229.795 154.689 230 154.768V152.57C229.824 152.531 229.551 152.473 229.238 152.473C228.018 152.473 227.109 153.195 226.758 154.455H226.709V152.648H224.375V163ZM231.25 163H233.682V156.975C233.682 155.52 234.512 154.631 235.889 154.631C236.299 154.631 236.67 154.689 236.875 154.768V152.57C236.699 152.531 236.426 152.473 236.113 152.473C234.893 152.473 233.984 153.195 233.633 154.455H233.584V152.648H231.25V163ZM241.67 161.33C240.615 161.33 239.912 160.793 239.912 159.943C239.912 159.123 240.586 158.596 241.758 158.518L244.15 158.371V159.162C244.15 160.412 243.047 161.33 241.67 161.33ZM240.938 163.166C242.266 163.166 243.564 162.473 244.16 161.35H244.209V163H246.553V155.871C246.553 153.791 244.883 152.434 242.314 152.434C239.678 152.434 238.027 153.82 237.92 155.754H240.176C240.332 154.895 241.064 154.338 242.217 154.338C243.418 154.338 244.15 154.963 244.15 156.047V156.789L241.416 156.945C238.896 157.102 237.48 158.205 237.48 160.041C237.48 161.906 238.936 163.166 240.938 163.166ZM249.629 166.848C251.992 166.848 253.135 165.979 254.023 163.41L257.764 152.648H255.205L252.764 160.93H252.725L250.283 152.648H247.627L251.309 163.01C251.318 163.039 251.172 163.557 251.172 163.586C250.898 164.543 250.381 164.924 249.375 164.924C249.229 164.924 248.799 164.914 248.672 164.885V166.809C248.799 166.838 249.492 166.848 249.629 166.848Z" fill="#343434"/>
<path d="M110.156 220.871H103.76V208.908H101.24V223H110.156V220.871ZM116.104 223.205C119.141 223.205 121.113 221.184 121.113 217.824C121.113 214.475 119.121 212.434 116.104 212.434C113.086 212.434 111.094 214.484 111.094 217.824C111.094 221.184 113.066 223.205 116.104 223.205ZM116.104 221.281C114.561 221.281 113.564 220.031 113.564 217.824C113.564 215.627 114.57 214.367 116.104 214.367C117.646 214.367 118.643 215.627 118.643 217.824C118.643 220.031 117.646 221.281 116.104 221.281ZM127.246 221.076C125.713 221.076 124.736 219.846 124.736 217.795C124.736 215.764 125.713 214.475 127.246 214.475C128.799 214.475 129.805 215.783 129.805 217.795C129.805 219.816 128.799 221.076 127.246 221.076ZM127.236 226.906C130.254 226.906 132.236 225.305 132.236 222.834V212.648H129.854V214.426H129.814C129.219 213.234 128.027 212.473 126.553 212.473C123.906 212.473 122.246 214.514 122.246 217.785C122.246 221.008 123.945 223.01 126.504 223.01C127.988 223.01 129.209 222.268 129.746 221.154H129.805V222.902C129.805 224.221 128.896 225.109 127.314 225.109C126.162 225.109 125.273 224.572 125.01 223.781H122.598C122.842 225.598 124.678 226.906 127.236 226.906ZM134.277 223H136.709V212.648H134.277V223ZM135.488 211.291C136.25 211.291 136.846 210.705 136.846 209.973C136.846 209.23 136.25 208.645 135.488 208.645C134.736 208.645 134.141 209.23 134.141 209.973C134.141 210.705 134.736 211.291 135.488 211.291ZM147.871 216.34C147.705 214.162 146.016 212.434 143.281 212.434C140.273 212.434 138.32 214.514 138.32 217.824C138.32 221.184 140.273 223.205 143.301 223.205C145.898 223.205 147.686 221.682 147.881 219.367H145.586C145.361 220.539 144.561 221.242 143.33 221.242C141.787 221.242 140.791 219.992 140.791 217.824C140.791 215.695 141.777 214.406 143.311 214.406C144.609 214.406 145.381 215.236 145.576 216.34H147.871Z" fill="#343434"/>
<g filter="url(#filter1_d_18_2)">
<rect x="100" y="68" width="304" height="50" rx="4" fill="white"/>
</g>
<circle cx="369" cy="83" r="3" fill="#C4C4C4"/>
<circle cx="369" cy="93" r="3" fill="#C4C4C4"/>
<circle cx="369" cy="103" r="3" fill="#C4C4C4"/>
<path d="M160.664 96.0352C160.771 98.6328 162.9 100.234 166.143 100.234C169.551 100.234 171.699 98.5547 171.699 95.8789C171.699 93.7793 170.488 92.5977 167.627 91.9434L166.006 91.5723C164.277 91.1621 163.564 90.6152 163.564 89.6777C163.564 88.5059 164.639 87.7246 166.23 87.7246C167.842 87.7246 168.945 88.5156 169.062 89.834H171.465C171.406 87.3535 169.355 85.6738 166.25 85.6738C163.184 85.6738 161.006 87.3633 161.006 89.8633C161.006 91.875 162.236 93.125 164.834 93.7207L166.66 94.1504C168.438 94.5703 169.16 95.1562 169.16 96.1719C169.16 97.3438 167.979 98.1836 166.279 98.1836C164.561 98.1836 163.262 97.334 163.105 96.0352H160.664ZM174.033 87.2266V89.6484H172.549V91.5234H174.033V97.2461C174.033 99.2578 174.912 100.049 177.148 100.049C177.666 100.049 178.145 100.01 178.408 99.9512V98.0957C178.252 98.125 177.939 98.1445 177.715 98.1445C176.855 98.1445 176.465 97.7539 176.465 96.9043V91.5234H178.418V89.6484H176.465V87.2266H174.033ZM180.078 100H182.51V93.9746C182.51 92.5195 183.34 91.6309 184.717 91.6309C185.127 91.6309 185.498 91.6895 185.703 91.7676V89.5703C185.527 89.5312 185.254 89.4727 184.941 89.4727C183.721 89.4727 182.812 90.1953 182.461 91.4551H182.412V89.6484H180.078V100ZM187.012 100H189.443V89.6484H187.012V100ZM188.223 88.291C188.984 88.291 189.58 87.7051 189.58 86.9727C189.58 86.2305 188.984 85.6445 188.223 85.6445C187.471 85.6445 186.875 86.2305 186.875 86.9727C186.875 87.7051 187.471 88.291 188.223 88.291ZM191.484 100H193.916V94.0039C193.916 92.5195 194.805 91.5137 196.201 91.5137C197.588 91.5137 198.271 92.334 198.271 93.7988V100H200.703V93.3105C200.703 90.918 199.404 89.4531 197.119 89.4531C195.527 89.4531 194.424 90.1953 193.867 91.4258H193.818V89.6484H191.484V100ZM207.227 98.0762C205.693 98.0762 204.717 96.8457 204.717 94.7949C204.717 92.7637 205.693 91.4746 207.227 91.4746C208.779 91.4746 209.785 92.7832 209.785 94.7949C209.785 96.8164 208.779 98.0762 207.227 98.0762ZM207.217 103.906C210.234 103.906 212.217 102.305 212.217 99.834V89.6484H209.834V91.4258H209.795C209.199 90.2344 208.008 89.4727 206.533 89.4727C203.887 89.4727 202.227 91.5137 202.227 94.7852C202.227 98.0078 203.926 100.01 206.484 100.01C207.969 100.01 209.189 99.2676 209.727 98.1543H209.785V99.9023C209.785 101.221 208.877 102.109 207.295 102.109C206.143 102.109 205.254 101.572 204.99 100.781H202.578C202.822 102.598 204.658 103.906 207.217 103.906Z" fill="#343434"/>
<g clip-path="url(#clip0_18_2)">
<path d="M132 83C126.486 83 122 87.4858 122 93C122 98.5142 126.486 103 132 103C137.514 103 142 98.5142 142 93C142 87.4858 137.514 83 132 83ZM137.575 89.665L131.421 96.5881C131.27 96.7585 131.058 96.8462 130.846 96.8462C130.677 96.8462 130.507 96.7908 130.365 96.6777L126.519 93.6008C126.188 93.3358 126.134 92.8515 126.399 92.5196C126.664 92.1877 127.149 92.1338 127.48 92.3992L130.756 95.0196L136.425 88.6423C136.707 88.3246 137.193 88.2962 137.511 88.5785C137.828 88.8612 137.857 89.3473 137.575 89.665Z" fill="#1DD1A1"/>
</g>
<g clip-path="url(#clip1_18_2)">
<path d="M72 207C66.4862 207 62 211.486 62 217C62 222.514 66.4862 227 72 227C77.5138 227 82 222.514 82 217C82 211.486 77.5138 207 72 207ZM77.575 213.665L71.4212 220.588C71.2696 220.758 71.0585 220.846 70.8458 220.846C70.6769 220.846 70.5073 220.791 70.3654 220.678L66.5192 217.601C66.1877 217.336 66.1338 216.852 66.3992 216.52C66.6642 216.188 67.1488 216.134 67.4804 216.399L70.7562 219.02L76.425 212.642C76.7065 212.325 77.1935 212.296 77.5108 212.578C77.8285 212.861 77.8573 213.347 77.575 213.665Z" fill="#1DD1A1"/>
</g>
<g clip-path="url(#clip2_18_2)">
<path d="M182.824 162.643L174.049 148.091C173.828 147.724 173.43 147.499 173 147.499C172.571 147.499 172.172 147.724 171.951 148.091L163.176 162.643C162.948 163.022 162.941 163.494 163.158 163.879C163.376 164.263 163.783 164.501 164.225 164.501H181.775C182.217 164.501 182.624 164.263 182.842 163.879C183.059 163.494 183.052 163.022 182.824 162.643ZM173.007 152.532C173.511 152.532 173.937 152.817 173.937 153.321C173.937 154.858 173.756 157.068 173.756 158.605C173.756 159.006 173.317 159.174 173.007 159.174C172.593 159.174 172.244 159.006 172.244 158.605C172.244 157.068 172.063 154.858 172.063 153.321C172.063 152.817 172.477 152.532 173.007 152.532ZM173.02 162.055C172.451 162.055 172.025 161.59 172.025 161.061C172.025 160.518 172.451 160.066 173.02 160.066C173.549 160.066 174.002 160.518 174.002 161.061C174.002 161.59 173.549 162.055 173.02 162.055Z" fill="#FB4767"/>
</g>
<defs>
<filter id="filter0_d_18_2" x="0" y="182" width="384" height="130" filterUnits="userSpaceOnUse" color-interpolation-filters="sRGB">
<feFlood flood-opacity="0" result="BackgroundImageFix"/>
<feColorMatrix in="SourceAlpha" type="matrix" values="0 0 0 0 0 0 0 0 0 0 0 0 0 0 0 0 0 0 127 0" result="hardAlpha"/>
<feOffset dy="30"/>
<feGaussianBlur stdDeviation="20"/>
<feColorMatrix type="matrix" values="0 0 0 0 0.78375 0 0 0 0 0.833512 0 0 0 0 0.870833 0 0 0 0.74 0"/>
<feBlend mode="normal" in2="BackgroundImageFix" result="effect1_dropShadow_18_2"/>
<feBlend mode="normal" in="SourceGraphic" in2="effect1_dropShadow_18_2" result="shape"/>
</filter>
<filter id="filter1_d_18_2" x="60" y="58" width="384" height="130" filterUnits="userSpaceOnUse" color-interpolation-filters="sRGB">
<feFlood flood-opacity="0" result="BackgroundImageFix"/>
<feColorMatrix in="SourceAlpha" type="matrix" values="0 0 0 0 0 0 0 0 0 0 0 0 0 0 0 0 0 0 127 0" result="hardAlpha"/>
<feOffset dy="30"/>
<feGaussianBlur stdDeviation="20"/>
<feColorMatrix type="matrix" values="0 0 0 0 0.78375 0 0 0 0 0.833512 0 0 0 0 0.870833 0 0 0 0.74 0"/>
<feBlend mode="normal" in2="BackgroundImageFix" result="effect1_dropShadow_18_2"/>
<feBlend mode="normal" in="SourceGraphic" in2="effect1_dropShadow_18_2" result="shape"/>
</filter>
<clipPath id="clip0_18_2">
<rect width="20" height="20" fill="white" transform="translate(122 83)"/>
</clipPath>
<clipPath id="clip1_18_2">
<rect width="20" height="20" fill="white" transform="translate(62 207)"/>
</clipPath>
<clipPath id="clip2_18_2">
<rect width="20" height="20" fill="white" transform="translate(163 146)"/>
</clipPath>
</defs>
</svg>
