<svg width="361" height="347" viewBox="0 0 361 347" fill="none" xmlns="http://www.w3.org/2000/svg">
<path opacity="0.05" d="M314.253 71.2814C173.706 -70.7117 94.2961 30.5917 59.1592 107.06C24.0223 183.529 33.3921 224.686 48.6181 241.056C118.892 349.796 489.938 248.773 314.253 71.2814Z" fill="#093845"/>
<g filter="url(#filter0_d_0_235)">
<rect x="194" y="225" width="52" height="52" rx="4" fill="white"/>
</g>
<g clip-path="url(#clip0_0_235)">
<path d="M220 236C211.729 236 205 242.729 205 251C205 259.271 211.729 266 220 266C228.271 266 235 259.271 235 251C235 242.729 228.271 236 220 236ZM228.362 245.998L219.132 256.382C218.904 256.638 218.588 256.769 218.269 256.769C218.015 256.769 217.761 256.686 217.548 256.517L211.779 251.901C211.282 251.504 211.201 250.777 211.599 250.279C211.996 249.782 212.723 249.701 213.221 250.099L218.134 254.029L226.638 244.463C227.06 243.987 227.79 243.944 228.266 244.368C228.743 244.792 228.786 245.521 228.362 245.998Z" fill="#1DD1A1"/>
</g>
<g filter="url(#filter1_d_0_235)">
<rect x="40" y="204" width="52" height="52" rx="4" fill="white"/>
</g>
<g clip-path="url(#clip1_0_235)">
<path d="M80.736 239.965L67.5741 218.137C67.2415 217.585 66.6442 217.248 66 217.248C65.3558 217.248 64.7585 217.585 64.4259 218.137L51.2641 239.965C50.9218 240.533 50.9116 241.241 51.2377 241.818C51.5637 242.395 52.1752 242.752 52.8381 242.752H79.1619C79.8248 242.752 80.4364 242.395 80.7624 241.818C81.0884 241.241 81.0783 240.533 80.736 239.965ZM66.0098 224.798C66.7658 224.798 67.4054 225.225 67.4054 225.981C67.4054 228.287 67.134 231.602 67.134 233.908C67.134 234.509 66.475 234.761 66.0098 234.761C65.3897 234.761 64.8663 234.509 64.8663 233.908C64.8663 231.602 64.595 228.287 64.595 225.981C64.595 225.225 65.2152 224.798 66.0098 224.798ZM66.0292 239.083C65.1765 239.083 64.5368 238.385 64.5368 237.591C64.5368 236.777 65.1764 236.098 66.0292 236.098C66.8239 236.098 67.5023 236.777 67.5023 237.591C67.5023 238.385 66.8239 239.083 66.0292 239.083Z" fill="#FB4767"/>
</g>
<g filter="url(#filter2_d_0_235)">
<rect x="78" y="62" width="230" height="168" rx="4" fill="white"/>
</g>
<circle cx="278" cy="91" r="3" fill="#C4C4C4"/>
<circle cx="278" cy="101" r="3" fill="#C4C4C4"/>
<circle cx="278" cy="111" r="3" fill="#C4C4C4"/>
<rect x="119" y="135" width="151" height="6" rx="3" fill="#EEF2F5"/>
<rect x="119" y="151" width="88" height="6" rx="3" fill="#EEF2F5"/>
<rect x="119" y="167" width="114" height="6" rx="3" fill="#EEF2F5"/>
<g filter="url(#filter3_d_0_235)">
<rect x="51" y="85" width="118" height="31.5863" rx="4" fill="white"/>
</g>
<g clip-path="url(#clip2_0_235)">
<path d="M69 94C64.5889 94 61 97.3643 61 101.5C61 105.636 64.5889 109 69 109C73.4111 109 77 105.636 77 101.5C77 97.3643 73.4111 94 69 94ZM73.46 98.9988L68.5369 104.191C68.4157 104.319 68.2468 104.385 68.0766 104.385C67.9415 104.385 67.8058 104.343 67.6923 104.258L64.6154 101.951C64.3502 101.752 64.3071 101.389 64.5194 101.14C64.7314 100.891 65.1191 100.85 65.3843 101.049L68.0049 103.015L72.54 98.2317C72.7652 97.9935 73.1548 97.9721 73.4086 98.1838C73.6628 98.3959 73.6858 98.7605 73.46 98.9988Z" fill="#1DD1A1"/>
</g>
<path d="M92.293 103.492C92.293 107.078 94.707 109.316 98.5039 109.316C102.383 109.316 104.703 107.195 104.703 103.398V92.0898H100.414V103.375C100.414 104.875 99.7227 105.684 98.457 105.684C97.2266 105.684 96.4414 104.84 96.4297 103.492H92.293ZM118.039 109H122.609L116.926 92.0898H111.664L105.98 109H110.363L111.441 105.285H116.973L118.039 109ZM114.16 95.6758H114.254L116.129 102.191H112.273L114.16 95.6758ZM132.137 109L137.527 92.0898H132.816L129.57 104.793H129.477L126.219 92.0898H121.332L126.723 109H132.137ZM148.297 109H152.867L147.184 92.0898H141.922L136.238 109H140.621L141.699 105.285H147.23L148.297 109ZM144.418 95.6758H144.512L146.387 102.191H142.531L144.418 95.6758Z" fill="#111111"/>
<g filter="url(#filter4_d_0_235)">
<rect x="229" y="15" width="52" height="52" rx="4" fill="white"/>
</g>
<g clip-path="url(#clip3_0_235)">
<path d="M255 26C246.729 26 240 32.7287 240 41C240 49.2713 246.729 56 255 56C263.271 56 270 49.2713 270 41C270 32.7287 263.271 26 255 26ZM263.362 35.9975L254.132 46.3821C253.904 46.6377 253.588 46.7692 253.269 46.7692C253.015 46.7692 252.761 46.6862 252.548 46.5165L246.779 41.9012C246.282 41.5037 246.201 40.7773 246.599 40.2794C246.996 39.7815 247.723 39.7008 248.221 40.0988L253.134 44.0294L261.638 34.4635C262.06 33.9869 262.79 33.9442 263.266 34.3677C263.743 34.7917 263.786 35.521 263.362 35.9975Z" fill="#1DD1A1"/>
</g>
<defs>
<filter id="filter0_d_0_235" x="154" y="215" width="132" height="132" filterUnits="userSpaceOnUse" color-interpolation-filters="sRGB">
<feFlood flood-opacity="0" result="BackgroundImageFix"/>
<feColorMatrix in="SourceAlpha" type="matrix" values="0 0 0 0 0 0 0 0 0 0 0 0 0 0 0 0 0 0 127 0" result="hardAlpha"/>
<feOffset dy="30"/>
<feGaussianBlur stdDeviation="20"/>
<feColorMatrix type="matrix" values="0 0 0 0 0.78375 0 0 0 0 0.833512 0 0 0 0 0.870833 0 0 0 0.74 0"/>
<feBlend mode="normal" in2="BackgroundImageFix" result="effect1_dropShadow_0_235"/>
<feBlend mode="normal" in="SourceGraphic" in2="effect1_dropShadow_0_235" result="shape"/>
</filter>
<filter id="filter1_d_0_235" x="0" y="194" width="132" height="132" filterUnits="userSpaceOnUse" color-interpolation-filters="sRGB">
<feFlood flood-opacity="0" result="BackgroundImageFix"/>
<feColorMatrix in="SourceAlpha" type="matrix" values="0 0 0 0 0 0 0 0 0 0 0 0 0 0 0 0 0 0 127 0" result="hardAlpha"/>
<feOffset dy="30"/>
<feGaussianBlur stdDeviation="20"/>
<feColorMatrix type="matrix" values="0 0 0 0 0.78375 0 0 0 0 0.833512 0 0 0 0 0.870833 0 0 0 0.74 0"/>
<feBlend mode="normal" in2="BackgroundImageFix" result="effect1_dropShadow_0_235"/>
<feBlend mode="normal" in="SourceGraphic" in2="effect1_dropShadow_0_235" result="shape"/>
</filter>
<filter id="filter2_d_0_235" x="38" y="52" width="310" height="248" filterUnits="userSpaceOnUse" color-interpolation-filters="sRGB">
<feFlood flood-opacity="0" result="BackgroundImageFix"/>
<feColorMatrix in="SourceAlpha" type="matrix" values="0 0 0 0 0 0 0 0 0 0 0 0 0 0 0 0 0 0 127 0" result="hardAlpha"/>
<feOffset dy="30"/>
<feGaussianBlur stdDeviation="20"/>
<feColorMatrix type="matrix" values="0 0 0 0 0.78375 0 0 0 0 0.833512 0 0 0 0 0.870833 0 0 0 0.74 0"/>
<feBlend mode="normal" in2="BackgroundImageFix" result="effect1_dropShadow_0_235"/>
<feBlend mode="normal" in="SourceGraphic" in2="effect1_dropShadow_0_235" result="shape"/>
</filter>
<filter id="filter3_d_0_235" x="11" y="75" width="198" height="111.586" filterUnits="userSpaceOnUse" color-interpolation-filters="sRGB">
<feFlood flood-opacity="0" result="BackgroundImageFix"/>
<feColorMatrix in="SourceAlpha" type="matrix" values="0 0 0 0 0 0 0 0 0 0 0 0 0 0 0 0 0 0 127 0" result="hardAlpha"/>
<feOffset dy="30"/>
<feGaussianBlur stdDeviation="20"/>
<feColorMatrix type="matrix" values="0 0 0 0 0.78375 0 0 0 0 0.833512 0 0 0 0 0.870833 0 0 0 0.74 0"/>
<feBlend mode="normal" in2="BackgroundImageFix" result="effect1_dropShadow_0_235"/>
<feBlend mode="normal" in="SourceGraphic" in2="effect1_dropShadow_0_235" result="shape"/>
</filter>
<filter id="filter4_d_0_235" x="189" y="5" width="132" height="132" filterUnits="userSpaceOnUse" color-interpolation-filters="sRGB">
<feFlood flood-opacity="0" result="BackgroundImageFix"/>
<feColorMatrix in="SourceAlpha" type="matrix" values="0 0 0 0 0 0 0 0 0 0 0 0 0 0 0 0 0 0 127 0" result="hardAlpha"/>
<feOffset dy="30"/>
<feGaussianBlur stdDeviation="20"/>
<feColorMatrix type="matrix" values="0 0 0 0 0.78375 0 0 0 0 0.833512 0 0 0 0 0.870833 0 0 0 0.74 0"/>
<feBlend mode="normal" in2="BackgroundImageFix" result="effect1_dropShadow_0_235"/>
<feBlend mode="normal" in="SourceGraphic" in2="effect1_dropShadow_0_235" result="shape"/>
</filter>
<clipPath id="clip0_0_235">
<rect width="30" height="30" fill="white" transform="translate(205 236)"/>
</clipPath>
<clipPath id="clip1_0_235">
<rect width="30" height="30" fill="white" transform="translate(51 215)"/>
</clipPath>
<clipPath id="clip2_0_235">
<rect width="16" height="15" fill="white" transform="translate(61 94)"/>
</clipPath>
<clipPath id="clip3_0_235">
<rect width="30" height="30" fill="white" transform="translate(240 26)"/>
</clipPath>
</defs>
</svg>
